{
  "accessors": [
    {
      "bufferView": 2,
      "componentType": 5126,
      "count": 3136,
      "max": [
        0.1928480863571167,
        0.8418391942977905,
        0.19284898042678833
      ],
      "min": [
        -0.1928471326828003,
        0.0009871125221252441,
        -0.19284623861312866
      ],
      "type": "VEC3"
    },
    {
      "bufferView": 2,
      "byteOffset": 37632,
      "componentType": 5126,
      "count": 3136,
      "max": [
        0.9994568824768066,
        0.9451072812080383,
        0.9994568824768066
      ],
      "min": [
        -0.9994568824768066,
        -0.6856967806816101,
        -0.9994568824768066
      ],
      "type": "VEC3"
    },
    {
      "bufferView": 1,
      "componentType": 5126,
      "count": 3136,
      "max": [
        0.99951171875,
        0.9961369037628174
      ],
      "min": [
        0.00048828125,
        0.00048828125
      ],
      "type": "VEC2"
    },
    {
      "bufferView": 1,
      "byteOffset": 25088,
      "componentType": 5126,
      "count": 3136,
      "max": [
        0.99951171875,
        0.9961369037628174
      ],
      "min": [
        0.00048828125,
        0.00048828125
      ],
      "type": "VEC2"
    },
    {
      "bufferView": 1,
      "byteOffset": 50176,
      "componentType": 5126,
      "count": 3136,
      "max": [
        0.99951171875,
        0.9961369037628174
      ],
      "min": [
        0.00048828125,
        0.00048828125
      ],
      "type": "VEC2"
    },
    {
      "bufferView": 1,
      "byteOffset": 75264,
      "componentType": 5126,
      "count": 3136,
      "max": [
        0.99951171875,
        0.9961369037628174
      ],
      "min": [
        0.00048828125,
        0.00048828125
      ],
      "type": "VEC2"
    },
    {
      "bufferView": 0,
      "componentType": 5125,
      "count": 4788,
      "type": "SCALAR"
    },
    {
      "bufferView": 2,
      "byteOffset": 75264,
      "componentType": 5126,
      "count": 3264,
      "max": [
        0.25022196769714355,
        0.8411252498626709,
        0.2502211332321167
      ],
      "min": [
        -0.25022196769714355,
        0.0002732276916503906,
        -0.25022268295288086
      ],
      "type": "VEC3"
    },
    {
      "bufferView": 2,
      "byteOffset": 114432,
      "componentType": 5126,
      "count": 3264,
      "max": [
        1.0,
        1.0,
        1.0
      ],
      "min": [
        -1.0,
        -1.0,
        -1.0
      ],
      "type": "VEC3"
    },
    {
      "bufferView": 1,
      "byteOffset": 100352,
      "componentType": 5126,
      "count": 3264,
      "max": [
        0.9994383454322815,
        0.99951171875
      ],
      "min": [
        0.00048828125,
        0.00048828125
      ],
      "type": "VEC2"
    },
    {
      "bufferView": 1,
      "byteOffset": 126464,
      "componentType": 5126,
      "count": 3264,
      "max": [
        0.9994383454322815,
        0.99951171875
      ],
      "min": [
        0.00048828125,
        0.00048828125
      ],
      "type": "VEC2"
    },
    {
      "bufferView": 1,
      "byteOffset": 152576,
      "componentType": 5126,
      "count": 3264,
      "max": [
        0.9994383454322815,
        0.99951171875
      ],
      "min": [
        0.00048828125,
        0.00048828125
      ],
      "type": "VEC2"
    },
    {
      "bufferView": 1,
      "byteOffset": 178688,
      "componentType": 5126,
      "count": 3264,
      "max": [
        0.9994383454322815,
        0.99951171875
      ],
      "min": [
        0.00048828125,
        0.00048828125
      ],
      "type": "VEC2"
    },
    {
      "bufferView": 0,
      "byteOffset": 19152,
      "componentType": 5125,
      "count": 4980,
      "type": "SCALAR"
    },
    {
      "bufferView": 2,
      "byteOffset": 153600,
      "componentType": 5126,
      "count": 3712,
      "max": [
        0.22036433219909668,
        0.7570273876190186,
        0.22036433219909668
      ],
      "min": [
        -0.220364511013031,
        0.005173772573471069,
        -0.220364511013031
      ],
      "type": "VEC3"
    },
    {
      "bufferView": 2,
      "byteOffset": 198144,
      "componentType": 5126,
      "count": 3712,
      "max": [
        0.9999250173568726,
        0.9638780951499939,
        0.9999250173568726
      ],
      "min": [
        -0.9999250769615173,
        -0.779795229434967,
        -0.9999250769615173
      ],
      "type": "VEC3"
    },
    {
      "bufferView": 1,
      "byteOffset": 204800,
      "componentType": 5126,
      "count": 3712,
      "max": [
        0.9960823655128479,
        0.99951171875
      ],
      "min": [
        0.00048828125,
        0.00048828125
      ],
      "type": "VEC2"
    },
    {
      "bufferView": 1,
      "byteOffset": 234496,
      "componentType": 5126,
      "count": 3712,
      "max": [
        0.9960823655128479,
        0.99951171875
      ],
      "min": [
        0.00048828125,
        0.00048828125
      ],
      "type": "VEC2"
    },
    {
      "bufferView": 1,
      "byteOffset": 264192,
      "componentType": 5126,
      "count": 3712,
      "max": [
        0.9960823655128479,
        0.99951171875
      ],
      "min": [
        0.00048828125,
        0.00048828125
      ],
      "type": "VEC2"
    },
    {
      "bufferView": 1,
      "byteOffset": 293888,
      "componentType": 5126,
      "count": 3712,
      "max": [
        0.9960823655128479,
        0.99951171875
      ],
      "min": [
        0.00048828125,
        0.00048828125
      ],
      "type": "VEC2"
    },
    {
      "bufferView": 0,
      "byteOffset": 39072,
      "componentType": 5125,
      "count": 5556,
      "type": "SCALAR"
    },
    {
      "bufferView": 2,
      "byteOffset": 242688,
      "componentType": 5126,
      "count": 4224,
      "max": [
        0.21650969982147217,
        0.7701984643936157,
        0.21651619672775269
      ],
      "min": [
        -0.21651649475097656,
        0.0004460662603378296,
        -0.2165101170539856
      ],
      "type": "VEC3"
    },
    {
      "bufferView": 2,
      "byteOffset": 293376,
      "componentType": 5126,
      "count": 4224,
      "max": [
        0.9983610510826111,
        0.9937527775764465,
        0.9983609914779663
      ],
      "min": [
        -0.9983611106872559,
        -0.9300601482391357,
        -0.9983610510826111
      ],
      "type": "VEC3"
    },
    {
      "bufferView": 1,
      "byteOffset": 323584,
      "componentType": 5126,
      "count": 4224,
      "max": [
        0.9987006783485413,
        0.99951171875
      ],
      "min": [
        0.00048828125,
        0.00048828125
      ],
      "type": "VEC2"
    },
    {
      "bufferView": 1,
      "byteOffset": 357376,
      "componentType": 5126,
      "count": 4224,
      "max": [
        0.9987006783485413,
        0.99951171875
      ],
      "min": [
        0.00048828125,
        0.00048828125
      ],
      "type": "VEC2"
    },
    {
      "bufferView": 1,
      "byteOffset": 391168,
      "componentType": 5126,
      "count": 4224,
      "max": [
        0.9987006783485413,
        0.99951171875
      ],
      "min": [
        0.00048828125,
        0.00048828125
      ],
      "type": "VEC2"
    },
    {
      "bufferView": 1,
      "byteOffset": 424960,
      "componentType": 5126,
      "count": 4224,
      "max": [
        0.9987006783485413,
        0.99951171875
      ],
      "min": [
        0.00048828125,
        0.00048828125
      ],
      "type": "VEC2"
    },
    {
      "bufferView": 0,
      "byteOffset": 61296,
      "componentType": 5125,
      "count": 6324,
      "type": "SCALAR"
    },
    {
      "bufferView": 2,
      "byteOffset": 344064,
      "componentType": 5126,
      "count": 4224,
      "max": [
        0.16115498542785645,
        0.542398989200592,
        0.1611475944519043
      ],
      "min": [
        -0.16114985942840576,
        0.0013444721698760986,
        -0.1611572504043579
      ],
      "type": "VEC3"
    },
    {
      "bufferView": 2,
      "byteOffset": 394752,
      "componentType": 5126,
      "count": 4224,
      "max": [
        0.998442530632019,
        0.9937522411346436,
        0.998442530632019
      ],
      "min": [
        -0.9984425902366638,
        -0.9300637245178223,
        -0.9984424710273743
      ],
      "type": "VEC3"
    },
    {
      "bufferView": 1,
      "byteOffset": 458752,
      "componentType": 5126,
      "count": 4224,
      "max": [
        0.9987006783485413,
        0.99951171875
      ],
      "min": [
        0.00048828125,
        0.00048828125
      ],
      "type": "VEC2"
    },
    {
      "bufferView": 1,
      "byteOffset": 492544,
      "componentType": 5126,
      "count": 4224,
      "max": [
        0.9987006783485413,
        0.99951171875
      ],
      "min": [
        0.00048828125,
        0.00048828125
      ],
      "type": "VEC2"
    },
    {
      "bufferView": 1,
      "byteOffset": 526336,
      "componentType": 5126,
      "count": 4224,
      "max": [
        0.9987006783485413,
        0.99951171875
      ],
      "min": [
        0.00048828125,
        0.00048828125
      ],
      "type": "VEC2"
    },
    {
      "bufferView": 1,
      "byteOffset": 560128,
      "componentType": 5126,
      "count": 4224,
      "max": [
        0.9987006783485413,
        0.99951171875
      ],
      "min": [
        0.00048828125,
        0.00048828125
      ],
      "type": "VEC2"
    },
    {
      "bufferView": 0,
      "byteOffset": 86592,
      "componentType": 5125,
      "count": 6324,
      "type": "SCALAR"
    },
    {
      "bufferView": 2,
      "byteOffset": 445440,
      "componentType": 5126,
      "count": 3712,
      "max": [
        0.16959214210510254,
        0.5739538669586182,
        0.16957855224609375
      ],
      "min": [
        -0.16958290338516235,
        -0.0005116164684295654,
        -0.16959643363952637
      ],
      "type": "VEC3"
    },
    {
      "bufferView": 2,
      "byteOffset": 489984,
      "componentType": 5126,
      "count": 3712,
      "max": [
        0.9988740086555481,
        0.9943103194236755,
        0.9988740682601929
      ],
      "min": [
        -0.9988740086555481,
        -0.6866956949234009,
        -0.9988740682601929
      ],
      "type": "VEC3"
    },
    {
      "bufferView": 1,
      "byteOffset": 593920,
      "componentType": 5126,
      "count": 3712,
      "max": [
        0.9960823655128479,
        0.99951171875
      ],
      "min": [
        0.00048828125,
        0.00048828125
      ],
      "type": "VEC2"
    },
    {
      "bufferView": 1,
      "byteOffset": 623616,
      "componentType": 5126,
      "count": 3712,
      "max": [
        0.9960823655128479,
        0.99951171875
      ],
      "min": [
        0.00048828125,
        0.00048828125
      ],
      "type": "VEC2"
    },
    {
      "bufferView": 1,
      "byteOffset": 653312,
      "componentType": 5126,
      "count": 3712,
      "max": [
        0.9960823655128479,
        0.99951171875
      ],
      "min": [
        0.00048828125,
        0.00048828125
      ],
      "type": "VEC2"
    },
    {
      "bufferView": 1,
      "byteOffset": 683008,
      "componentType": 5126,
      "count": 3712,
      "max": [
        0.9960823655128479,
        0.99951171875
      ],
      "min": [
        0.00048828125,
        0.00048828125
      ],
      "type": "VEC2"
    },
    {
      "bufferView": 0,
      "byteOffset": 111888,
      "componentType": 5125,
      "count": 5556,
      "type": "SCALAR"
    }
  ],
  "asset": {
    "extras": {
      "author": "Samuel Francis Johnson (Oneironauticus) (https://sketchfab.com/oneironauticus)",
      "license": "CC-BY-4.0 (http://creativecommons.org/licenses/by/4.0/)",
      "source": "https://sketchfab.com/3d-models/palace-bottle-assets-for-treasure-scene-b3916b05c5904f749c24b31a15b9d9fa",
      "title": "Palace Bottle Assets - for treasure scene"
    },
    "generator": "Sketchfab-15.55.0",
    "version": "2.0"
  },
  "bufferViews": [
    {
      "buffer": 0,
      "byteLength": 134112,
      "name": "floatBufferViews",
      "target": 34963
    },
    {
      "buffer": 0,
      "byteLength": 712704,
      "byteOffset": 134112,
      "byteStride": 8,
      "name": "floatBufferViews",
      "target": 34962
    },
    {
      "buffer": 0,
      "byteLength": 534528,
      "byteOffset": 846816,
      "byteStride": 12,
      "name": "floatBufferViews",
      "target": 34962
    }
  ],
  "buffers": [
    {
      "byteLength": 1381344,
      "uri": "scene.bin"
    }
  ],
  "images": [
    {
      "uri": "textures/Bottle04_BAKED_baseColor.jpeg"
    },
    {
      "uri": "textures/Bottle04_BAKED_metallicRoughness.png"
    },
    {
      "uri": "textures/Bottle03_BAKED_baseColor.jpeg"
    },
    {
      "uri": "textures/Bottle03_BAKED_metallicRoughness.png"
    },
    {
      "uri": "textures/Bottle02_BAKED_baseColor.jpeg"
    },
    {
      "uri": "textures/Bottle02_BAKED_metallicRoughness.png"
    },
    {
      "uri": "textures/Bottle01_BAKED_baseColor.jpeg"
    },
    {
      "uri": "textures/Bottle01_BAKED_metallicRoughness.png"
    }
  ],
  "materials": [
    {
      "doubleSided": true,
      "name": "Bottle04_BAKED",
      "pbrMetallicRoughness": {
        "baseColorTexture": {
          "index": 0
        },
        "metallicRoughnessTexture": {
          "index": 1
        }
      }
    },
    {
      "doubleSided": true,
      "name": "Bottle03_BAKED",
      "pbrMetallicRoughness": {
        "baseColorTexture": {
          "index": 2
        },
        "metallicRoughnessTexture": {
          "index": 3
        }
      }
    },
    {
      "doubleSided": true,
      "name": "Bottle02_BAKED",
      "pbrMetallicRoughness": {
        "baseColorTexture": {
          "index": 4
        },
        "metallicRoughnessTexture": {
          "index": 5
        }
      }
    },
    {
      "doubleSided": true,
      "name": "Bottle01_BAKED",
      "pbrMetallicRoughness": {
        "baseColorTexture": {
          "index": 6
        },
        "metallicRoughnessTexture": {
          "index": 7
        }
      }
    }
  ],
  "meshes": [
    {
      "name": "Object_0",
      "primitives": [
        {
          "attributes": {
            "NORMAL": 1,
            "POSITION": 0,
            "TEXCOORD_0": 2,
            "TEXCOORD_1": 3,
            "TEXCOORD_2": 4,
            "TEXCOORD_3": 5
          },
          "indices": 6,
          "material": 0,
          "mode": 4
        }
      ]
    },
    {
      "name": "Object_1",
      "primitives": [
        {
          "attributes": {
            "NORMAL": 8,
            "POSITION": 7,
            "TEXCOORD_0": 9,
            "TEXCOORD_1": 10,
            "TEXCOORD_2": 11,
            "TEXCOORD_3": 12
          },
          "indices": 13,
          "material": 1,
          "mode": 4
        }
      ]
    },
    {
      "name": "Object_2",
      "primitives": [
        {
          "attributes": {
            "NORMAL": 15,
            "POSITION": 14,
            "TEXCOORD_0": 16,
            "TEXCOORD_1": 17,
            "TEXCOORD_2": 18,
            "TEXCOORD_3": 19
          },
          "indices": 20,
          "material": 2,
          "mode": 4
        }
      ]
    },
    {
      "name": "Object_3",
      "primitives": [
        {
          "attributes": {
            "NORMAL": 22,
            "POSITION": 21,
            "TEXCOORD_0": 23,
            "TEXCOORD_1": 24,
            "TEXCOORD_2": 25,
            "TEXCOORD_3": 26
          },
          "indices": 27,
          "material": 3,
          "mode": 4
        }
      ]
    },
    {
      "name": "Object_4",
      "primitives": [
        {
          "attributes": {
            "NORMAL": 29,
            "POSITION": 28,
            "TEXCOORD_0": 30,
            "TEXCOORD_1": 31,
            "TEXCOORD_2": 32,
            "TEXCOORD_3": 33
          },
          "indices": 34,
          "material": 3,
          "mode": 4
        }
      ]
    },
    {
      "name": "Object_5",
      "primitives": [
        {
          "attributes": {
            "NORMAL": 36,
            "POSITION": 35,
            "TEXCOORD_0": 37,
            "TEXCOORD_1": 38,
            "TEXCOORD_2": 39,
            "TEXCOORD_3": 40
          },
          "indices": 41,
          "material": 2,
          "mode": 4
        }
      ]
    }
  ],
  "nodes": [
    {
      "children": [
        1
      ],
      "matrix": [
        1.0,
        0.0,
        0.0,
        0.0,
        0.0,
        2.220446049250313e-16,
        -1.0,
        0.0,
        0.0,
        1.0,
        2.220446049250313e-16,
        0.0,
        0.0,
        0.0,
        0.0,
        1.0
      ],
      "name": "Sketchfab_model"
    },
    {
      "children": [
        2
      ],
      "name": "root"
    },
    {
      "children": [
        3,
        5,
        7,
        9,
        11,
        13
      ],
      "matrix": [
        1.0,
        0.0,
        0.0,
        0.0,
        0.0,
        2.220446049250313e-16,
        1.0,
        0.0,
        0.0,
        -1.0,
        2.220446049250313e-16,
        0.0,
        0.0,
        0.0,
        0.0,
        1.0
      ],
      "name": "GLTF_SceneRootNode"
    },
    {
      "children": [
        4
      ],
      "matrix": [
        1.0,
        0.0,
        0.0,
        0.0,
        0.0,
        1.0,
        0.0,
        0.0,
        0.0,
        0.0,
        1.0,
        0.0,
        1.0199103355407715,
        0.0003167688846588135,
        0.02026420831680298,
        1.0
      ],
      "name": "Bottle04_0"
    },
    {
      "mesh": 0,
      "name": "Object_4"
    },
    {
      "children": [
        6
      ],
      "matrix": [
        1.0,
        0.0,
        0.0,
        0.0,
        0.0,
        1.0,
        0.0,
        0.0,
        0.0,
        0.0,
        1.0,
        0.0,
        0.3487318158149719,
        0.001030653715133667,
        0.020266294479370117,
        1.0
      ],
      "name": "Bottle03_1"
    },
    {
      "mesh": 1,
      "name": "Object_6"
    },
    {
      "children": [
        8
      ],
      "matrix": [
        1.0,
        0.0,
        0.0,
        0.0,
        0.0,
        1.0,
        0.0,
        0.0,
        0.0,
        0.0,
        1.0,
        0.0,
        -0.29337364435195923,
        0.00020226836204528809,
        0.020265698432922363,
        1.0
      ],
      "name": "Bottle02_2"
    },
    {
      "mesh": 2,
      "name": "Object_8"
    },
    {
      "children": [
        10
      ],
      "matrix": [
        1.0,
        0.0,
        0.0,
        0.0,
        0.0,
        1.0,
        0.0,
        0.0,
        0.0,
        0.0,
        1.0,
        0.0,
        -0.9598653316497803,
        0.000857815146446228,
        0.020262539386749268,
        1.0
      ],
      "name": "Bottle01_3"
    },
    {
      "mesh": 3,
      "name": "Object_10"
    },
    {
      "children": [
        12
      ],
      "matrix": [
        1.0,
        0.0,
        0.0,
        0.0,
        0.0,
        1.0,
        0.0,
        0.0,
        0.0,
        0.0,
        1.0,
        0.0,
        -0.9598712921142578,
        0.0008122920989990234,
        0.5250024795532227,
        1.0
      ],
      "name": "Bottle01-small_4"
    },
    {
      "mesh": 4,
      "name": "Object_12"
    },
    {
      "children": [
        14
      ],
      "matrix": [
        1.0,
        0.0,
        0.0,
        0.0,
        0.0,
        1.0,
        0.0,
        0.0,
        0.0,
        0.0,
        1.0,
        0.0,
        -0.29337841272354126,
        0.005421429872512817,
        0.5059641599655151,
        1.0
      ],
      "name": "Bottle02-small_5"
    },
    {
      "mesh": 5,
      "name": "Object_14"
    }
  ],
  "samplers": [
    {
      "magFilter": 9729,
      "minFilter": 9987,
      "wrapS": 10497,
      "wrapT": 10497
    }
  ],
  "scene": 0,
  "scenes": [
    {
      "name": "Sketchfab_Scene",
      "nodes": [
        0
      ]
    }
  ],
  "textures": [
    {
      "sampler": 0,
      "source": 0
    },
    {
      "sampler": 0,
      "source": 1
    },
    {
      "sampler": 0,
      "source": 2
    },
    {
      "sampler": 0,
      "source": 3
    },
    {
      "sampler": 0,
      "source": 4
    },
    {
      "sampler": 0,
      "source": 5
    },
    {
      "sampler": 0,
      "source": 6
    },
    {
      "sampler": 0,
      "source": 7
    }
  ]
}
