{
  "accessors": [
    {
      "bufferView": 2,
      "componentType": 5126,
      "count": 2800,
      "max": [
        9.865201950073242,
        1.2149419784545898,
        12.176241874694824
      ],
      "min": [
        -9.87162971496582,
        -1.2206389904022217,
        -8.083827018737793
      ],
      "type": "VEC3"
    },
    {
      "bufferView": 2,
      "byteOffset": 33600,
      "componentType": 5126,
      "count": 2800,
      "max": [
        0.9999414682388306,
        0.9998654723167419,
        0.9998623728752136
      ],
      "min": [
        -0.999965250492096,
        -0.9999996423721313,
        -0.9999893307685852
      ],
      "type": "VEC3"
    },
    {
      "bufferView": 3,
      "componentType": 5126,
      "count": 2800,
      "max": [
        0.9994954466819763,
        0.9997292757034302,
        0.9999707937240601,
        1.0
      ],
      "min": [
        -1.0,
        -0.9998840093612671,
        -0.9999293088912964,
        1.0
      ],
      "type": "VEC4"
    },
    {
      "bufferView": 1,
      "componentType": 5126,
      "count": 2800,
      "max": [
        1.0001269578933716,
        0.9920420050621033
      ],
      "min": [
        0.01430600043386221,
        0.005692000035196543
      ],
      "type": "VEC2"
    },
    {
      "bufferView": 0,
      "componentType": 5125,
      "count": 7056,
      "type": "SCALAR"
    },
    {
      "bufferView": 2,
      "byteOffset": 67200,
      "componentType": 5126,
      "count": 452,
      "max": [
        6.5993242263793945,
        5.374454021453857,
        -4.066038131713867
      ],
      "min": [
        -6.59932279586792,
        -5.374454021453857,
        -12.120144844055176
      ],
      "type": "VEC3"
    },
    {
      "bufferView": 2,
      "byteOffset": 72624,
      "componentType": 5126,
      "count": 452,
      "max": [
        0.9998972415924072,
        0.999952495098114,
        1.0
      ],
      "min": [
        -0.9998972415924072,
        -0.999952495098114,
        -0.9997239708900452
      ],
      "type": "VEC3"
    },
    {
      "bufferView": 3,
      "byteOffset": 44800,
      "componentType": 5126,
      "count": 452,
      "max": [
        1.0,
        0.9999967217445374,
        0.99826979637146,
        1.0
      ],
      "min": [
        -1.0,
        -0.9999967217445374,
        -0.9974298477172852,
        1.0
      ],
      "type": "VEC4"
    },
    {
      "bufferView": 1,
      "byteOffset": 22400,
      "componentType": 5126,
      "count": 452,
      "max": [
        0.8449159860610962,
        0.9966899752616882
      ],
      "min": [
        0.007670999970287085,
        0.005692000035196543
      ],
      "type": "VEC2"
    },
    {
      "bufferView": 0,
      "byteOffset": 28224,
      "componentType": 5125,
      "count": 1956,
      "type": "SCALAR"
    }
  ],
  "asset": {
    "extras": {
      "author": "Delandi (https://sketchfab.com/delandi)",
      "license": "CC-BY-4.0 (http://creativecommons.org/licenses/by/4.0/)",
      "source": "https://sketchfab.com/3d-models/gold-ring-with-lapis-lazuli-stone-game-ready-2f0dbe8e2700427da3c6552a06e25981",
      "title": "Gold Ring with Lapis Lazuli stone (game-ready)"
    },
    "generator": "Sketchfab-15.10.0",
    "version": "2.0"
  },
  "bufferViews": [
    {
      "buffer": 0,
      "byteLength": 36048,
      "name": "floatBufferViews",
      "target": 34963
    },
    {
      "buffer": 0,
      "byteLength": 26016,
      "byteOffset": 36048,
      "byteStride": 8,
      "name": "floatBufferViews",
      "target": 34962
    },
    {
      "buffer": 0,
      "byteLength": 78048,
      "byteOffset": 62064,
      "byteStride": 12,
      "name": "floatBufferViews",
      "target": 34962
    },
    {
      "buffer": 0,
      "byteLength": 52032,
      "byteOffset": 140112,
      "byteStride": 16,
      "name": "floatBufferViews",
      "target": 34962
    }
  ],
  "buffers": [
    {
      "byteLength": 192144,
      "uri": "scene.bin"
    }
  ],
  "images": [
    {
      "uri": "textures/lambert1_baseColor.jpeg"
    },
    {
      "uri": "textures/lambert1_metallicRoughness.png"
    },
    {
      "uri": "textures/lambert1_normal.png"
    }
  ],
  "materials": [
    {
      "doubleSided": true,
      "name": "lambert1",
      "normalTexture": {
        "index": 2
      },
      "occlusionTexture": {
        "index": 1,
        "strength": 0.43695303102847743
      },
      "pbrMetallicRoughness": {
        "baseColorTexture": {
          "index": 0
        },
        "metallicRoughnessTexture": {
          "index": 1
        }
      }
    }
  ],
  "meshes": [
    {
      "name": "defaultMaterial",
      "primitives": [
        {
          "attributes": {
            "NORMAL": 1,
            "POSITION": 0,
            "TANGENT": 2,
            "TEXCOORD_0": 3
          },
          "indices": 4,
          "material": 0,
          "mode": 4
        }
      ]
    },
    {
      "name": "defaultMaterial",
      "primitives": [
        {
          "attributes": {
            "NORMAL": 6,
            "POSITION": 5,
            "TANGENT": 7,
            "TEXCOORD_0": 8
          },
          "indices": 9,
          "material": 0,
          "mode": 4
        }
      ]
    }
  ],
  "nodes": [
    {
      "children": [
        1
      ],
      "matrix": [
        -2.220446049250313e-16,
        -1.1102230246251565e-16,
        1.0,
        0.0,
        -1.1102230246251565e-16,
        1.0,
        2.220446049250313e-16,
        0.0,
        -1.0,
        -2.2204460492503128e-16,
        -1.110223024625157e-16,
        0.0,
        0.0,
        0.0,
        0.0,
        1.0
      ],
      "name": "Sketchfab_model"
    },
    {
      "children": [
        2
      ],
      "matrix": [
        1.0,
        0.0,
        0.0,
        0.0,
        0.0,
        -4.371139006309477e-08,
        0.999999999999999,
        0.0,
        0.0,
        -0.999999999999999,
        -4.371139006309477e-08,
        0.0,
        0.0,
        0.0,
        0.0,
        1.0
      ],
      "name": "Collada visual scene group"
    },
    {
      "children": [
        3,
        6
      ],
      "name": "Gring_L"
    },
    {
      "children": [
        4
      ],
      "name": "R1part2_L"
    },
    {
      "children": [
        5
      ],
      "name": "R1part2_Low3"
    },
    {
      "mesh": 0,
      "name": "defaultMaterial"
    },
    {
      "children": [
        7
      ],
      "name": "R1part1_L"
    },
    {
      "children": [
        8
      ],
      "name": "R1part1_Low"
    },
    {
      "mesh": 1,
      "name": "defaultMaterial"
    }
  ],
  "samplers": [
    {
      "magFilter": 9729,
      "minFilter": 9987,
      "wrapS": 10497,
      "wrapT": 10497
    }
  ],
  "scene": 0,
  "scenes": [
    {
      "name": "Sketchfab_Scene",
      "nodes": [
        0
      ]
    }
  ],
  "textures": [
    {
      "sampler": 0,
      "source": 0
    },
    {
      "sampler": 0,
      "source": 1
    },
    {
      "sampler": 0,
      "source": 2
    }
  ]
}
